<svg width="3052" height="1432" xmlns="http://www.w3.org/2000/svg" xmlns:xlink="http://www.w3.org/1999/xlink" xml:space="preserve" overflow="hidden"><defs><clipPath id="clip0"><rect x="696" y="531" width="3052" height="1432"/></clipPath></defs><g clip-path="url(#clip0)" transform="translate(-696 -531)"><path d="M3296.28 907.246C3110.04 613.365 2858.47 513.777 2536.97 583.051 2542.42 626.671 2563.52 618.501 2578.3 615.94 2689.61 602.964 2788.46 633.023 2887.01 660.991 2996.77 691.79 3086.86 762.696 3165.97 860.383 3189.3 889.45 3211.11 919.701 3231.33 951.013 3235.71 956.573 3237.87 965.29 3244.06 983.413 3170.21 984.27 3120.56 918.589 3046.25 947.04 3044.64 954.387 3041.46 963.145 3039.85 970.492 3080.3 991.176 3121.68 1012.2 3161.49 1034.63 3201.3 1057.06 3239.52 1080.9 3279.96 1101.59 3309.75 1116.41 3333.11 1093.19 3340.93 1036.55 3351.64 963.121 3354.8 892.886 3360.48 821.587 3361.15 813.9 3361.51 804.112 3359.02 799.241 3351.21 788.465 3341.49 782.939 3332.11 773.575 3323.86 790.4 3312.15 807.947 3307.36 824.046 3301.6 845.735 3301.82 865.641 3296.28 907.246Z" fill="#1B70A6" fill-rule="evenodd"/><path d="M1431.59 1581.29C1617.6 1874.63 1868.86 1974.04 2189.97 1904.89 2184.52 1861.35 2163.46 1869.51 2148.69 1872.06 2037.52 1885.02 1938.79 1855.01 1840.36 1827.1 1730.74 1796.35 1640.76 1725.57 1561.73 1628.07 1538.43 1599.05 1516.64 1568.86 1496.45 1537.6 1492.08 1532.05 1489.93 1523.35 1483.73 1505.26 1557.5 1504.41 1607.09 1569.97 1681.31 1541.57 1682.91 1534.24 1686.09 1525.49 1687.7 1518.17 1647.3 1497.52 1605.97 1476.54 1566.21 1454.14 1526.45 1431.75 1488.28 1407.96 1447.88 1387.31 1418.13 1372.52 1394.79 1395.69 1386.99 1452.22 1376.29 1525.52 1373.13 1595.62 1367.46 1666.79 1366.79 1674.46 1366.44 1684.23 1368.93 1689.1 1376.72 1699.85 1386.43 1705.37 1395.8 1714.72 1404.04 1697.92 1415.73 1680.41 1420.52 1664.34 1426.28 1642.69 1426.05 1622.82 1431.59 1581.29Z" fill="#1B70A6" fill-rule="evenodd"/><text fill="#1B70A6" font-family="Arial,Arial_MSFontService,sans-serif" font-weight="700" font-size="137" transform="matrix(1 0 0 1 2241.14 952)">vida<tspan font-size="137" x="-30.53" y="155">amor</tspan><tspan font-size="137" x="-664.538" y="309">crescimento sustentável</tspan><tspan font-size="137" x="-423.835" y="464">desenvolvimento</tspan><tspan font-size="137" x="-152.696" y="619">emprego</tspan><tspan font-size="137" x="19.093" y="774">fixe</tspan><tspan font-size="206" x="740.898" y="840">POP!!!</tspan><tspan font-size="206" x="-1421" y="-159">RECICLAR </tspan><tspan font-size="206" x="-298.083" y="-159">É...</tspan></text></g></svg>