<svg width="448" height="512" xmlns="http://www.w3.org/2000/svg" xmlns:xlink="http://www.w3.org/1999/xlink" xml:space="preserve" overflow="hidden"><defs><clipPath id="clip0"><rect x="416" y="104" width="448" height="512"/></clipPath></defs><g clip-path="url(#clip0)" transform="translate(-416 -104)"><path d="M816 136 464 136C437.49 136 416 157.49 416 184L416 536C416 562.51 437.49 584 464 584L601.25 584 601.25 431.69 538.25 431.69 538.25 360 601.25 360 601.25 305.36C601.25 243.21 638.25 208.88 694.92 208.88 722.06 208.88 750.44 213.72 750.44 213.72L750.44 274.72 719.17 274.72C688.36 274.72 678.75 293.84 678.75 313.45L678.75 360 747.53 360 736.53 431.69 678.75 431.69 678.75 584 816 584C842.51 584 864 562.51 864 536L864 184C864 157.49 842.51 136 816 136Z" fill="#FFFFFF"/></g></svg>