<svg width="448" height="512" xmlns="http://www.w3.org/2000/svg" xmlns:xlink="http://www.w3.org/1999/xlink" xml:space="preserve" overflow="hidden"><defs><clipPath id="clip0"><rect x="416" y="104" width="448" height="512"/></clipPath></defs><g clip-path="url(#clip0)" transform="translate(-416 -104)"><path d="M640 306.66C610.541 306.671 586.669 330.561 586.68 360.02 586.691 389.479 610.581 413.351 640.04 413.34 669.491 413.329 693.36 389.451 693.36 360 693.338 330.542 669.458 306.671 640 306.66ZM764.71 265.66C759.221 251.75 748.21 240.739 734.3 235.25 713.3 226.96 663.3 228.82 640 228.82 616.7 228.82 566.75 226.89 545.69 235.25 531.78 240.739 520.769 251.75 515.28 265.66 507 286.66 508.85 336.71 508.85 359.99 508.85 383.27 507 433.26 515.32 454.33 520.809 468.24 531.82 479.251 545.73 484.74 566.73 493.03 616.73 491.17 640.04 491.17 663.35 491.17 713.28 493.1 734.34 484.74 748.25 479.251 759.261 468.24 764.75 454.33 773.1 433.33 771.18 383.28 771.18 360 771.18 336.72 773.1 286.74 764.75 265.67ZM640 442C594.713 442 558 405.287 558 360 558 314.713 594.713 278 640 278 685.287 278 722 314.713 722 360 722.055 405.232 685.432 441.945 640.2 442 640.133 442 640.067 442 640 442ZM725.38 293.7C714.809 293.706 706.236 285.141 706.23 274.57 706.224 263.999 714.789 255.426 725.36 255.42 735.931 255.414 744.504 263.979 744.51 274.55 744.51 274.553 744.51 274.557 744.51 274.56 744.554 285.109 736.039 293.696 725.49 293.74 725.467 293.74 725.443 293.74 725.42 293.74ZM816 136 464 136C437.49 136 416 157.49 416 184L416 536C416 562.51 437.49 584 464 584L816 584C842.51 584 864 562.51 864 536L864 184C864 157.49 842.51 136 816 136ZM798.88 426C797.59 451.63 791.74 474.34 773.03 493 754.32 511.66 731.63 517.63 706.03 518.85 679.62 520.34 600.44 520.34 574.03 518.85 548.4 517.56 525.77 511.7 507.03 493 488.29 474.3 482.4 451.58 481.18 426 479.69 399.58 479.69 320.39 481.18 294 482.47 268.37 488.25 245.66 507.03 227 525.81 208.34 548.5 202.44 574.03 201.22 600.44 199.73 679.62 199.73 706.03 201.22 731.66 202.51 754.36 208.37 773.03 227.07 791.7 245.77 797.66 268.49 798.88 294.12 800.37 320.44 800.37 399.56 798.88 426Z" fill="#FFFFFF"/></g></svg>