<svg width="267" height="248" xmlns="http://www.w3.org/2000/svg" xmlns:xlink="http://www.w3.org/1999/xlink" xml:space="preserve" overflow="hidden"><defs><clipPath id="clip0"><rect x="506" y="236" width="267" height="248"/></clipPath><clipPath id="clip1"><path d="M571.892 236 772.714 313.088 707.107 484.001 506.285 406.912Z"/></clipPath><clipPath id="clip2"><path d="M746.988 380.04 654.248 464.281 611.793 417.543 704.533 333.303Z" fill-rule="evenodd" clip-rule="evenodd"/></clipPath><clipPath id="clip3"><path d="M746.988 380.04 654.248 464.281 611.793 417.543 704.533 333.303Z" fill-rule="evenodd" clip-rule="evenodd"/></clipPath><clipPath id="clip4"><path d="M765.512 363.215 638.546 478.544 523.218 351.58 650.184 236.251Z" fill-rule="evenodd" clip-rule="evenodd"/></clipPath><clipPath id="clip5"><path d="M615.689 252.812 733.19 297.917 710.638 356.668 593.136 311.563Z"/></clipPath><clipPath id="clip6"><path d="M615.689 252.812 733.19 297.917 710.638 356.668 593.136 311.563Z"/></clipPath><clipPath id="clip7"><path d="M592.189 243.791 752.419 305.298 690.912 465.528 530.682 404.022Z"/></clipPath><clipPath id="clip8"><path d="M567.456 430.717 544.85 307.485 606.954 296.092 629.561 419.324Z" fill-rule="evenodd" clip-rule="evenodd"/></clipPath><clipPath id="clip9"><path d="M567.456 430.717 544.85 307.485 606.954 296.092 629.561 419.324Z" fill-rule="evenodd" clip-rule="evenodd"/></clipPath><clipPath id="clip10"><path d="M571.972 455.33 541.023 286.62 709.731 255.672 740.679 424.381Z" fill-rule="evenodd" clip-rule="evenodd"/></clipPath></defs><g clip-path="url(#clip0)" transform="translate(-506 -236)"><path d="M755.907 355.504C755.907 419.793 703.79 471.911 639.5 471.911 575.21 471.911 523.093 419.793 523.093 355.504 523.093 291.214 575.21 239.097 639.5 239.097 703.79 239.097 755.907 291.214 755.907 355.504Z" fill="#FFFFFF"/><path d="M753.409 355.504C753.409 418.414 702.41 469.413 639.5 469.413 576.59 469.413 525.591 418.414 525.591 355.504 525.591 292.593 576.59 241.595 639.5 241.595 702.41 241.595 753.409 292.593 753.409 355.504Z" stroke="#1B70A6" stroke-width="4.99601" fill="none"/><g clip-path="url(#clip1)"><g clip-path="url(#clip2)"><g clip-path="url(#clip3)"><g clip-path="url(#clip4)"><path d="M574.021 403.661C579.382 407.496 585.274 410.527 591.511 412.659 596.112 414.157 600.801 415.435 605.522 416.476 608.767 417.19 610.813 415.795 612.005 412.718 612.239 412.068 612.433 411.404 612.585 410.73 614.534 403.004 616.479 395.282 618.419 387.564 618.508 387.228 618.536 386.878 618.601 386.54 618.966 384.795 618.309 382.993 616.905 381.893 615.871 380.985 614.702 380.241 613.442 379.687 608.756 377.897 604.055 376.165 599.521 374.005 598.709 373.708 597.882 373.454 597.044 373.243 592.147 371.527 587.24 369.823 582.37 368.036 580.401 367.322 580.088 366.517 581.216 364.982 583.267 362.215 585.037 359.24 587.537 356.783 589.387 354.968 591.07 352.994 592.825 351.075 593.417 350.326 594.504 350.199 595.253 350.791 595.357 350.873 595.451 350.967 595.534 351.071 596.519 352.053 597.427 353.105 598.388 354.086 599.857 355.555 601.305 357.067 602.871 358.426 603.818 359.327 605.317 359.289 606.218 358.341 606.565 357.976 606.786 357.511 606.851 357.012 606.957 356.153 607.015 355.289 607.025 354.423 607.079 352.52 607.048 350.623 607.141 348.71 607.572 339.721 608.04 330.722 608.459 321.721 608.742 319.97 607.553 318.322 605.803 318.038 605.744 318.029 605.685 318.021 605.625 318.015 603.073 317.552 600.509 317.128 597.936 316.82 594.834 316.484 591.785 315.767 588.859 314.685 586.479 313.621 583.873 313.162 581.273 313.35 580.414 313.445 579.544 313.328 578.74 313.01 575.51 311.726 572.316 312.033 569.059 312.838 568.257 313.026 567.368 313.354 566.615 312.648L565.079 314.044C565.195 314.361 565.249 314.697 565.238 315.035 564.663 317.717 565.717 319.745 567.583 321.544 568.965 322.86 570.284 324.235 571.589 325.622 572.198 326.191 572.23 327.146 571.661 327.754 571.616 327.802 571.568 327.847 571.517 327.889 568.964 330.232 566.502 332.7 563.815 334.864 557.489 339.936 555.415 346.992 554.774 354.552 554.597 358.355 554.813 362.166 555.419 365.924 556.352 372.623 558.498 379.095 561.753 385.023 562.867 386.971 563.758 389.038 564.408 391.186 565.826 396.808 569.613 400.62 574.021 403.661ZM593.183 380.093C593.55 380.038 593.92 379.864 594.197 379.959 598.871 381.738 603.547 383.492 608.181 385.377 608.742 385.739 609.085 386.356 609.098 387.023 608.316 392.998 607.469 398.978 606.527 404.931 606.208 406.976 604.606 407.72 602.656 406.918 602.173 406.725 601.701 406.503 601.243 406.255 599.612 405.351 599.354 404.634 600.296 402.967 602.193 399.457 603.171 395.523 603.137 391.533 603.196 389.279 602.587 387.059 601.389 385.15 600.441 383.648 598.974 383.59 598.221 385.108 597.751 386.027 597.368 386.989 597.075 387.979 596.219 391.144 595.472 394.326 594.676 397.506 594.333 398.837 594.037 400.195 593.597 401.497 593.365 401.904 592.943 402.166 592.475 402.193 591.331 401.838 590.226 401.366 589.179 400.784 588.835 400.441 588.67 399.958 588.732 399.476 588.918 398.811 589.186 398.172 589.527 397.572 591.979 392.516 593.455 387.254 593.026 381.578 593.036 381.08 593.089 380.583 593.183 380.093ZM586.881 380.35C586.89 380.34 586.895 380.327 586.896 380.314 586.866 380.206 586.835 380.068 586.803 379.958 586.877 379.831 586.944 379.7 587.004 379.567 587.044 379.483 587.024 379.386 587.041 379.301 587.031 379.519 587.02 379.737 587.021 379.968 586.994 380.086 586.938 380.207 586.907 380.327 586.906 380.34 586.909 380.353 586.917 380.363 586.905 380.346 586.893 380.334 586.881 380.345ZM566.239 377.033C564.045 371.379 561.96 365.667 561.319 359.582 561.144 357.862 561.146 356.129 561.324 354.409 561.37 352.127 562.393 349.975 564.132 348.497 565.435 347.43 566.207 345.756 567.373 344.487 568.54 343.218 569.915 342.131 571.196 340.968 571.162 340.93 571.141 340.882 571.105 340.842 573.171 339.265 575.192 337.638 577.315 336.173 578.896 335.083 579.56 333.16 581.352 332.25 582.161 331.84 582.189 330.238 581.659 329.399 580.733 327.946 579.708 326.537 578.807 325.061 578.22 324.109 576.853 323.522 577.336 322.064 578.521 321.893 579.719 321.828 580.915 321.872 582.798 322.107 584.641 322.658 586.522 322.942 590.619 323.6 594.744 324.161 598.854 324.808 601.783 325.252 601.843 325.268 601.669 328.391 601.425 332.714 601.109 337.034 600.804 341.366 600.71 342.749 600.586 344.136 600.422 345.513 600.314 346.515 599.434 346.898 598.599 346.08 596.95 344.496 595.313 344.709 593.35 345.38 588.536 347.019 585.142 350.45 582.023 354.186 579.706 356.966 577.574 359.848 575.021 362.471 571.533 366.123 569.064 370.627 567.862 375.533 567.685 376.204 567.555 376.879 567.353 377.548 567.338 377.609 567.095 377.647 566.961 377.626 566.797 377.599 566.643 377.533 566.509 377.435 566.393 377.32 566.301 377.184 566.239 377.033ZM574.586 376.936C575.171 375.13 576.13 374.63 578.206 374.828 579.572 374.954 580.181 375.675 579.738 376.82 578.401 380.195 577.024 383.526 575.614 386.871 575.503 387.106 575.122 387.247 574.836 387.392 574.786 387.414 574.637 387.226 574.451 387.046 573.584 383.726 573.631 380.234 574.586 376.938ZM579.44 394.216C579.474 394.05 579.494 393.842 579.608 393.763 582.337 391.794 583.077 388.451 585.068 385.976 585.059 385.914 585.038 385.84 585.027 385.781L585.179 385.643C585.083 384.931 585.376 384.222 585.948 383.786 585.925 383.736 585.906 383.689 585.881 383.637 585.963 383.506 586.03 383.367 586.083 383.222 586.088 383.124 586.081 383.016 586.086 382.918 586.081 383.016 586.112 383.126 586.083 383.222L586.083 383.222C586.087 383.353 586.082 383.501 586.087 383.635 586.036 383.681 585.997 383.74 585.946 383.786 586.318 384.654 585.747 385.148 585.178 385.643 585.179 385.699 585.185 385.756 585.196 385.811 585.16 385.871 585.116 385.926 585.067 385.975 585.272 386.505 585.361 387.072 585.327 387.639 584.701 390.507 583.656 393.268 582.227 395.832 581.762 396.672 581.292 396.843 580.639 396.279 580.035 395.742 579.22 395.277 579.44 394.219ZM654.496 382.967C652.523 384.911 650.436 386.737 648.248 388.435 643.842 391.493 639.398 394.483 635.012 397.563 632.574 399.267 630.498 401.292 628.259 403.188 627.456 403.898 627.113 404.995 627.37 406.035 627.611 407.04 627.938 408.022 628.346 408.972 629.758 412.694 631.122 416.439 632.608 420.116 636.18 428.921 639.777 437.727 643.461 446.5 644.303 448.54 646.64 449.512 648.68 448.67 649.477 448.341 650.146 447.763 650.588 447.023 651.971 444.832 653.216 442.556 654.313 440.208 655.149 438.453 656.204 437.494 658.276 437.605 662.785 437.729 667.281 437.057 671.557 435.619 674.495 434.585 677.501 433.751 680.552 433.124 684.829 432.399 688.888 430.723 692.43 428.219 694.691 426.648 696.796 424.833 698.966 423.116 706.783 416.594 711.607 407.925 715.525 398.872 720.124 388.298 720.736 377.06 718.657 365.716 718.156 362.997 717.607 360.275 717.204 357.536 716.87 355.313 716.737 353.07 716.445 350.833 716.401 349.04 714.911 347.622 713.118 347.667 712.911 347.672 712.704 347.697 712.501 347.741 711.133 347.948 709.797 348.33 708.525 348.876 703.757 350.863 698.732 352.168 693.599 352.751 689.683 353.462 685.834 354.508 682.096 355.878 680.513 356.332 679.533 357.914 679.833 359.534 680.057 361.416 680.418 363.29 680.815 365.129 681.524 368.333 682.551 371.478 683.026 374.731 683.763 379.878 684.623 384.982 685.838 390.043 686.624 392.887 686.897 395.848 686.645 398.787 686.501 400.031 685.931 400.756 684.717 400.772 683.346 400.863 681.969 400.764 680.626 400.479 676.624 399.389 672.666 398.093 668.708 396.87 668.007 396.664 667.561 395.978 667.656 395.254 667.91 391.987 668.273 388.714 668.551 385.45 668.748 384.447 668.748 383.416 668.551 382.414 667.707 379.666 665.068 377.873 662.203 378.101 660.805 378.101 659.456 378.611 658.407 379.535 657.084 380.662 655.79 381.815 654.496 382.967ZM691.714 371.261C691.803 370.784 692.11 370.377 692.544 370.159 693.391 370.044 694.251 370.069 695.09 370.232 697.474 370.638 699.83 371.14 702.203 371.557 703.043 371.721 703.901 371.782 704.756 371.74 705.202 371.613 705.584 371.324 705.827 370.929 705.863 370.6 705.738 370.274 705.493 370.051 703.646 368.809 701.773 367.591 699.887 366.407 699.31 366.052 698.602 365.884 698.037 365.492 697.676 365.2 697.405 364.813 697.253 364.374 697.211 364.277 697.674 363.969 697.952 363.716 699.987 363.073 701.929 361.818 704.306 362.138 706.103 362.382 707.267 363.179 707.374 365.006 707.629 367.752 708.213 370.459 709.112 373.066 709.413 374.051 709.625 375.061 709.745 376.084 709.758 376.76 709.706 377.437 709.587 378.103 708.923 378.071 708.263 377.989 707.611 377.859 707.128 377.679 706.667 377.445 706.236 377.162 702.61 375.158 698.62 373.898 694.5 373.457 693.647 373.37 692.823 373.099 692.086 372.661 691.769 372.469 691.633 371.706 691.714 371.261ZM693.179 380.73C694.545 380.813 695.904 380.988 697.246 381.252 701.272 382.138 705.291 383.123 709.317 384.055 710.024 384.14 710.558 384.738 710.561 385.45 710.589 386.654 710.543 387.854 710.522 389.055 710.499 389.461 710.151 389.77 709.745 389.746 709.647 389.741 709.551 389.715 709.462 389.671 708.854 389.353 708.267 388.997 707.704 388.604 703.567 385.49 698.794 383.328 693.724 382.273 693.305 382.1 692.916 381.861 692.571 381.566 692.845 381.172 693.034 380.723 693.179 380.73ZM697.953 391.085C697.964 391.097 697.988 391.098 697.999 391.111 698.13 391.108 698.26 391.098 698.389 391.081 698.482 391.158 698.563 391.247 698.657 391.325 701.524 391.547 703.995 392.94 706.472 394.214 708.32 395.177 708.486 396.579 707.271 398.563 706.876 399.2 705.946 399.35 705.744 398.769 704.94 396.557 703.234 395.164 701.441 393.803 700.457 393.051 699.564 392.171 698.645 391.337 698.556 391.332 698.467 391.319 698.379 391.3 698.248 391.23 698.113 391.167 697.975 391.111L697.646 391.132C697.745 391.1 697.849 391.084 697.953 391.085ZM694.916 398.455C694.934 397.812 695.344 397.626 695.892 397.846 697.155 398.345 698.428 398.879 699.678 399.412 699.797 399.467 699.99 399.755 699.952 399.79 699.785 399.987 699.562 400.279 699.358 400.284 698.172 400.281 696.988 400.212 695.81 400.077 695.532 400.052 695.294 399.688 695.05 399.47 694.983 399.135 694.938 398.797 694.914 398.457ZM686.945 411.721C689.366 411.631 691.779 411.379 694.188 411.351 695.269 411.342 696.407 410.402 697.449 411.447 696.74 412.404 695.984 413.324 695.181 414.204 693.969 415.421 692.641 416.535 691.358 417.7L691.185 417.51C690.283 418.329 689.372 419.11 688.494 419.955 686.204 422.332 683.393 424.146 680.284 425.254 679.491 425.582 678.732 425.985 678.016 426.456 676.213 427.507 674.116 427.94 672.044 427.688 668.952 427.345 665.852 427.173 662.772 426.843 660.195 426.616 657.603 426.649 655.033 426.944 652.609 427.062 650.287 427.96 648.414 429.504 647.187 430.55 646.302 430.241 645.662 428.668 644.544 425.952 643.396 423.241 642.473 420.464 640.879 415.726 639.533 410.877 637.209 406.407 636.724 405.642 636.935 404.631 637.684 404.122 640.23 402.054 642.884 400.123 645.634 398.335 649.018 396.251 652.171 393.813 655.041 391.063 655.546 390.602 656.113 390.213 656.724 389.906 656.861 389.827 657.383 390.095 657.423 390.267 657.789 392.315 657.621 394.423 656.935 396.388 656.169 399.058 656.122 401.883 656.798 404.577 657.508 407.247 658.987 408.798 661.714 409.172 661.884 409.213 662.057 409.241 662.232 409.258 670.481 409.899 678.602 412.003 686.945 411.721ZM624.656 321.02C626.631 323.141 627.752 323.05 629.988 321.251 632.009 319.624 633.961 317.897 636.118 316.469 637.754 315.492 639.179 314.198 640.307 312.663 641.755 310.712 643.505 309.004 645.492 307.605 647.559 306.029 649.705 304.566 651.657 302.862 653.876 300.938 656.25 299.2 658.754 297.665 660.056 296.853 660.463 296.994 661.104 298.288 662.885 301.906 663.509 305.858 664.491 309.718 665.361 313.099 664.594 314.398 661.233 315.621 660.602 315.902 659.929 316.076 659.241 316.133 656.521 316.174 654.252 317.426 652.012 318.762 650.824 319.469 650.715 320.009 651.186 321.295 651.916 323.072 653.236 324.543 654.923 325.459 656.987 326.737 659.027 328.012 661.061 329.333 664.406 331.484 667.727 333.659 671.059 335.823 671.922 336.389 672.789 336.962 673.622 337.573 676.568 339.693 679.487 341.861 682.473 343.922 684.332 345.203 686.229 346.373 688.644 346.38 689.688 346.458 690.72 346.113 691.508 345.424 692.019 344.956 692.501 344.456 692.952 343.927 696.941 339.15 700.502 334.031 703.593 328.629 704.844 326.162 706.369 323.844 708.138 321.719 709.378 320.278 710.463 318.71 711.374 317.041 712.907 314.42 712.036 312.362 709.04 311.514 708.054 311.25 707.026 311.185 706.014 311.32 704.83 311.469 703.689 311.974 702.51 312.233 701.61 312.529 700.64 312.038 700.344 311.137 700.301 311.005 700.273 310.867 700.263 310.728 700.131 309.18 700.096 307.612 700.041 306.07 699.926 303.139 699.836 300.182 699.698 297.25 699.495 292.639 697.064 289.447 693.091 287.426 690.021 285.859 686.861 284.42 683.646 283.123 674.344 279.362 665.001 275.685 655.645 272.018 652.735 270.881 649.758 269.951 646.534 270.586 645.687 270.77 644.815 270.81 643.955 270.705 640.69 270.172 637.824 271.176 635.053 272.767 627.744 276.94 620.871 281.833 614.537 287.374 612.848 288.908 610.953 290.699 608.991 292.39 606.143 294.843 606.09 300.726 608.81 303.236 609.626 304.126 610.486 304.974 611.388 305.776 613.803 307.742 615.916 310.052 617.661 312.631 619.813 315.573 622.15 318.375 624.658 321.02ZM664.907 289.109C664.502 288.347 664.139 287.563 663.817 286.762 663.725 286.35 663.684 285.928 663.695 285.506 664.036 285.497 664.415 285.407 664.702 285.518 667.445 286.548 670.253 287.495 672.916 288.692 677.159 290.608 681.332 292.702 685.533 294.725 686.34 295.022 686.97 295.668 687.246 296.482 688.461 300.268 689.802 304.015 691.04 307.774 691.586 309.411 692.041 311.078 692.403 312.766 693.163 316.408 695.057 318.697 699.021 318.826 699.71 318.845 700.394 318.949 701.058 319.136 701.473 319.178 701.776 319.549 701.735 319.964 701.723 320.081 701.684 320.193 701.622 320.292 699.151 324.229 697.009 328.377 693.189 331.338 691.874 332.453 690.728 333.752 689.786 335.195 689.238 336.114 688.09 336.481 687.11 336.051 685.28 335.537 683.477 334.932 681.708 334.237 675.486 331.652 669.501 328.529 663.821 324.904 663.417 324.599 663.039 324.26 662.692 323.891 662.792 323.568 662.789 323.107 662.963 323.041 664.411 322.467 665.869 321.93 667.359 321.477 668.688 321.04 669.726 319.993 670.153 318.661 670.924 316.536 671.175 314.258 670.885 312.017 670.525 304.046 668.489 296.24 664.909 289.109ZM652.653 289.931C651.526 287.408 649.688 285.269 647.363 283.776 647.035 283.564 646.953 282.942 646.868 282.488 646.859 282.403 647.45 282.237 647.773 282.082 650.23 280.986 651.641 282.462 653.106 284.075 654.033 285.504 654.921 286.991 655.911 288.387 657.581 290.762 657 291.447 654.253 293.091 653.986 293.139 653.714 293.043 653.536 292.839 653.203 291.887 653.075 290.852 652.654 289.93ZM641.168 289.15C640.979 288.897 640.817 288.624 640.685 288.337 641.024 288.378 641.391 288.323 641.687 288.471 643.36 289.292 645.056 290.114 646.675 291.053 647.534 291.6 648.361 292.195 649.152 292.836 650.128 293.298 650.575 293.535 651.052 293.728 651.98 294.112 651.298 294.662 651.036 294.832 649.894 295.585 648.714 296.278 647.5 296.909 647.183 296.978 646.854 296.869 646.64 296.625 645.358 293.709 643.207 291.468 641.169 289.149ZM628.828 291.253C628.734 290.946 628.526 290.462 628.667 290.31 628.948 289.906 629.375 289.626 629.858 289.529 630.533 289.533 631.193 289.729 631.762 290.094 634.171 291.706 636.648 293.28 638.904 295.099 640.409 296.495 642.129 297.639 643.999 298.488 644.727 298.753 644.744 299.41 644.107 300.01 643.61 300.484 643.091 300.932 642.266 301.682 642.077 301.831 641.534 302.254 640.98 302.665 640.471 303.089 639.715 303.02 639.292 302.511 639.261 302.475 639.234 302.437 639.208 302.397 636.892 297.964 633.421 294.24 629.16 291.619 629.009 291.541 628.892 291.411 628.829 291.252ZM621.427 307.849C620.032 306.313 618.635 304.801 617.264 303.241 616.95 302.831 616.671 302.395 616.428 301.939 617.076 302.091 617.843 302.044 618.349 302.396 620.477 303.846 622.527 305.413 624.619 306.919 625.297 307.436 626.013 307.901 626.762 308.309 627.551 308.598 628.426 308.193 628.715 307.403 628.791 307.196 628.821 306.975 628.803 306.755 628.633 305.756 628.235 304.809 627.639 303.988 625.667 301.818 623.529 299.821 621.443 297.755 621.089 297.429 620.753 297.084 620.436 296.722 620.369 296.648 620.428 296.382 620.495 296.252 620.575 296.11 620.78 295.877 620.842 295.891 621.981 296.236 623.096 296.654 624.181 297.143 626.314 298.241 628.445 299.387 630.496 300.652 632.915 302.14 635.672 303.134 637.58 305.362L631.707 311.116C631.21 311.59 630.69 312.062 630.171 312.511 627.711 314.676 627.614 314.671 625.237 312.081 624.545 311.319 623.867 310.522 623.175 309.76L621.434 307.843Z" fill="#038C3E"/></g></g></g><g clip-path="url(#clip5)"><g clip-path="url(#clip6)"><g clip-path="url(#clip7)"><path d="M715.11 397.017C716.122 390.503 716.175 383.876 715.268 377.347 714.53 372.563 713.56 367.8 712.36 363.114 711.536 359.894 709.365 358.694 706.078 359.012 705.391 359.095 704.71 359.22 704.039 359.386 696.253 361.119 688.472 362.853 680.696 364.59 680.356 364.662 680.03 364.793 679.699 364.887 677.975 365.345 676.661 366.742 676.31 368.491 675.964 369.824 675.826 371.203 675.901 372.578 676.414 377.57 676.987 382.548 677.102 387.571 677.202 388.43 677.348 389.283 677.538 390.127 678.213 395.272 678.903 400.423 679.501 405.577 679.752 407.657 679.174 408.299 677.294 407.982 673.895 407.393 670.442 407.152 667.117 406.022 664.656 405.184 662.136 404.569 659.629 403.864 658.693 403.672 658.089 402.757 658.281 401.821 658.307 401.692 658.349 401.566 658.404 401.446 658.837 400.125 659.368 398.84 659.811 397.54 660.461 395.567 661.161 393.594 661.669 391.586 662.043 390.33 661.329 389.009 660.073 388.634 659.596 388.492 659.085 388.504 658.615 388.668 657.799 388.959 657 389.295 656.222 389.676 654.496 390.483 652.813 391.364 651.062 392.141 642.832 395.797 634.575 399.426 626.341 403.094 624.651 403.625 623.711 405.425 624.241 407.115 624.26 407.174 624.28 407.232 624.302 407.29 625.04 409.778 625.819 412.261 626.704 414.696 627.804 417.618 628.539 420.665 628.894 423.767 629.015 426.373 629.78 428.908 631.121 431.145 631.593 431.87 631.881 432.7 631.961 433.562 632.269 437.024 633.987 439.74 636.174 442.288 636.706 442.915 637.396 443.565 637.106 444.556L639.048 445.301C639.279 445.055 639.555 444.855 639.862 444.714 642.52 444.022 643.856 442.168 644.624 439.692 645.177 437.865 645.812 436.069 646.461 434.28 646.697 433.479 647.536 433.021 648.336 433.257 648.399 433.275 648.461 433.298 648.521 433.325 651.767 434.552 655.084 435.642 658.233 437.071 665.623 440.443 672.865 439.123 679.912 436.295 683.388 434.745 686.694 432.839 689.778 430.609 695.344 426.761 700.16 421.93 703.99 416.352 705.229 414.481 706.675 412.756 708.301 411.209 712.681 407.419 714.381 402.321 715.11 397.017ZM685.397 390.498C685.183 390.195 684.861 389.943 684.82 389.652 684.301 384.676 683.759 379.711 683.356 374.723 683.426 374.059 683.823 373.474 684.414 373.164 690.109 371.175 695.837 369.245 701.583 367.409 703.556 366.775 704.938 367.87 705.106 369.974 705.151 370.493 705.165 371.014 705.15 371.534 705.076 373.399 704.553 373.951 702.638 373.859 698.645 373.742 694.687 374.637 691.133 376.46 689.091 377.419 687.38 378.961 686.212 380.891 685.296 382.413 685.906 383.75 687.602 383.739 688.636 383.746 689.669 383.656 690.686 383.472 693.901 382.814 697.083 382.051 700.284 381.333 701.629 381.041 702.976 380.694 704.338 380.501 704.809 380.525 705.236 380.785 705.472 381.193 705.671 382.375 705.749 383.575 705.703 384.772 705.551 385.234 705.194 385.599 704.735 385.76 704.057 385.892 703.364 385.941 702.674 385.905 697.049 385.988 691.678 387.036 686.798 389.97 686.345 390.185 685.874 390.36 685.391 390.495ZM688.469 396.012C688.456 396.009 688.442 396.01 688.43 396.016 688.347 396.091 688.238 396.181 688.153 396.258 688.006 396.249 687.859 396.248 687.712 396.255 687.62 396.257 687.541 396.318 687.458 396.342 687.659 396.253 687.857 396.164 688.064 396.059 688.182 396.031 688.316 396.027 688.436 396 688.449 395.995 688.459 395.986 688.464 395.974 688.456 395.989 688.45 396.005 688.466 396.011ZM694.822 415.941C690.757 420.444 686.592 424.869 681.437 428.182 679.978 429.111 678.428 429.889 676.811 430.503 674.748 431.487 672.363 431.541 670.258 430.652 668.717 429.969 666.871 430.032 665.213 429.56 663.554 429.088 661.96 428.349 660.341 427.727 660.323 427.775 660.289 427.814 660.27 427.866 657.924 426.727 655.562 425.654 653.295 424.417 651.607 423.494 649.585 423.764 647.967 422.574 647.235 422.036 645.791 422.73 645.28 423.581 644.399 425.062 643.602 426.611 642.687 428.08 642.101 429.032 642.193 430.518 640.672 430.742 639.985 429.76 639.387 428.719 638.886 427.631 638.247 425.842 637.907 423.948 637.313 422.14 636.05 418.183 634.695 414.247 633.419 410.285 632.494 407.468 632.481 407.408 635.353 406.158 639.327 404.431 643.331 402.773 647.342 401.097 648.619 400.559 649.915 400.051 651.222 399.573 652.166 399.22 652.906 399.834 652.552 400.948 651.879 403.133 652.808 404.5 654.293 405.952 657.929 409.516 662.528 411.005 667.274 412.112 670.805 412.932 674.342 413.541 677.84 414.643 682.677 416.118 687.817 416.298 692.745 415.166 693.426 415.023 694.087 414.836 694.777 414.715 694.837 414.701 694.982 414.901 695.024 415.031 695.073 415.189 695.084 415.357 695.057 415.521 695.007 415.675 694.926 415.818 694.82 415.94ZM690.969 408.528C689.091 408.818 688.211 408.185 687.45 406.24 686.947 404.962 687.317 404.094 688.539 403.976 692.159 403.653 695.758 403.385 699.384 403.141 699.645 403.134 699.943 403.411 700.202 403.602 700.243 403.636 700.141 403.854 700.065 404.101 697.487 406.37 694.344 407.899 690.967 408.528ZM704.227 396.422C704.062 396.466 703.869 396.541 703.747 396.476 700.754 394.923 697.432 395.765 694.322 395.1 694.272 395.135 694.214 395.187 694.167 395.223L693.975 395.15C693.381 395.556 692.615 395.612 691.968 395.298L691.864 395.424C691.71 395.41 691.556 395.412 691.402 395.43 691.313 395.47 691.218 395.526 691.13 395.565 691.219 395.525 691.304 395.447 691.402 395.43L691.402 395.43C691.518 395.368 691.652 395.306 691.77 395.241 691.834 395.265 691.904 395.274 691.968 395.298 692.576 394.576 693.276 394.864 693.975 395.15 694.025 395.123 694.073 395.092 694.117 395.058 694.187 395.064 694.255 395.078 694.322 395.1 694.703 394.678 695.17 394.344 695.692 394.12 698.539 393.389 701.478 393.081 704.415 393.205 705.375 393.243 705.742 393.586 705.529 394.423 705.318 395.205 705.271 396.142 704.225 396.421ZM660.311 334.424C662.939 335.312 665.512 336.355 668.018 337.547 672.738 340.108 677.416 342.734 682.148 345.268 684.771 346.679 687.518 347.624 690.221 348.771 691.217 349.169 692.352 348.983 693.168 348.286 693.957 347.619 694.688 346.886 695.352 346.094 698.044 343.159 700.777 340.256 703.393 337.276 709.653 330.126 715.902 322.953 722.083 315.718 723.525 314.043 723.337 311.517 721.662 310.075 721.01 309.513 720.195 309.177 719.337 309.116 716.754 308.865 714.158 308.776 711.564 308.85 709.62 308.894 708.285 308.381 707.45 306.481 705.526 302.396 702.897 298.681 699.684 295.508 697.434 293.348 695.332 291.038 693.395 288.593 690.815 285.099 687.486 282.227 683.65 280.19 681.228 278.878 678.656 277.813 676.142 276.646 666.785 272.595 656.859 272.183 646.998 272.752 635.471 273.398 625.151 277.901 615.948 284.858 613.743 286.529 611.558 288.242 609.29 289.834 607.45 291.13 605.507 292.258 603.641 293.525 602.061 294.37 601.465 296.335 602.309 297.916 602.408 298.1 602.524 298.275 602.657 298.438 603.458 299.571 604.402 300.596 605.464 301.49 609.39 304.856 612.823 308.759 615.66 313.083 618.062 316.263 620.733 319.23 623.642 321.953 624.761 323.164 626.617 323.328 627.931 322.332 629.51 321.285 631.027 320.123 632.49 318.939 635.034 316.866 637.382 314.534 640.076 312.646 644.346 309.674 648.521 306.611 652.497 303.25 654.685 301.269 657.209 299.693 659.95 298.598 661.127 298.167 662.033 298.35 662.594 299.428 663.293 300.611 663.826 301.885 664.176 303.213 665.009 307.279 665.637 311.398 666.33 315.485 666.462 316.203 666.05 316.911 665.359 317.151 662.324 318.393 659.234 319.539 656.191 320.76 655.206 321.034 654.284 321.498 653.477 322.125 651.4 324.114 650.986 327.279 652.482 329.735 653.113 330.984 654.178 331.961 655.477 332.482 657.082 333.15 658.697 333.788 660.311 334.424ZM633.059 306.437C632.592 306.571 632.09 306.479 631.7 306.19 631.215 305.485 630.849 304.706 630.617 303.882 629.9 301.568 629.29 299.239 628.593 296.933 628.357 296.109 628.023 295.317 627.598 294.574 627.283 294.232 626.852 294.021 626.39 293.982 626.079 294.098 625.844 294.356 625.755 294.675 625.478 296.883 625.233 299.103 625.024 301.32 624.967 301.996 625.135 302.704 625.041 303.384 624.943 303.836 624.72 304.251 624.397 304.583 624.33 304.665 623.846 304.39 623.493 304.255 622 302.726 620.003 301.555 619.218 299.288 618.625 297.573 618.808 296.173 620.396 295.258 622.736 293.796 624.892 292.057 626.818 290.081 627.562 289.369 628.369 288.726 629.23 288.159 629.829 287.842 630.457 287.585 631.106 287.391 631.378 287.999 631.605 288.627 631.785 289.268 631.841 289.781 631.84 290.298 631.781 290.81 631.625 294.951 632.297 299.082 633.76 302.96 634.067 303.76 634.196 304.619 634.138 305.474 634.11 305.85 633.492 306.312 633.057 306.439ZM640.867 300.872C640.326 299.614 639.869 298.322 639.5 297.003 638.475 293.009 637.54 288.973 636.561 284.958 636.317 284.288 636.611 283.542 637.247 283.219 638.311 282.653 639.403 282.154 640.486 281.634 640.861 281.473 641.294 281.647 641.454 282.022 641.492 282.111 641.512 282.206 641.514 282.303 641.503 282.989 641.45 283.674 641.352 284.354 640.435 289.449 640.655 294.684 641.997 299.684 642.031 300.136 641.993 300.591 641.884 301.032 641.409 300.974 640.92 301.006 640.86 300.873ZM647.971 291.952C647.977 291.936 647.967 291.914 647.974 291.897 647.912 291.782 647.845 291.671 647.772 291.563 647.799 291.445 647.842 291.333 647.869 291.215 646.774 288.553 646.905 285.719 646.926 282.933 646.953 280.849 648.132 280.07 650.453 280.263 651.201 280.33 651.754 281.093 651.326 281.535 649.712 283.248 649.236 285.399 648.828 287.612 648.6 288.829 648.215 290.022 647.885 291.219 647.92 291.301 647.949 291.386 647.972 291.473 647.968 291.621 647.973 291.77 647.985 291.918L648.152 292.203C648.076 292.131 648.013 292.046 647.964 291.953ZM655.929 291.35C655.347 291.622 654.995 291.341 654.945 290.752 654.822 289.4 654.723 288.021 654.638 286.666 654.633 286.535 654.804 286.234 654.851 286.252 655.104 286.313 655.464 286.38 655.561 286.561 656.094 287.621 656.567 288.71 656.977 289.823 657.08 290.083 656.862 290.458 656.778 290.775 656.505 290.985 656.219 291.178 655.922 291.352ZM671.384 292.506C670.211 290.384 668.897 288.341 667.788 286.202 667.292 285.24 665.937 284.646 666.401 283.245 667.577 283.448 668.741 283.711 669.89 284.033 671.524 284.568 673.119 285.254 674.739 285.876L674.647 286.116C675.786 286.553 676.896 287.016 678.046 287.421 681.204 288.397 684.093 290.093 686.486 292.373 687.137 292.933 687.84 293.43 688.585 293.858 690.336 294.996 691.668 296.675 692.379 298.64 693.467 301.556 694.712 304.404 695.806 307.304 696.765 309.709 697.966 312.01 699.388 314.172 700.588 316.286 702.438 317.955 704.663 318.934 706.152 319.561 706.274 320.488 705.157 321.769 703.234 323.988 701.327 326.232 699.262 328.306 695.744 331.861 692.017 335.243 689.068 339.329 688.603 340.106 687.604 340.373 686.812 339.932 683.815 338.587 680.891 337.084 678.052 335.431 674.662 333.345 671.061 331.624 667.309 330.296 666.668 330.052 666.065 329.721 665.514 329.313 665.382 329.226 665.387 328.639 665.522 328.526 667.189 327.278 669.149 326.481 671.213 326.211 673.945 325.695 676.491 324.467 678.596 322.651 680.661 320.817 681.382 318.798 680.486 316.194 680.445 316.024 680.393 315.856 680.329 315.693 677.173 308.039 675.391 299.836 671.378 292.508ZM618.396 388.935C619.403 386.217 618.815 385.257 616.198 384.068 613.828 382.992 611.406 382.026 609.157 380.741 607.546 379.719 605.747 379.028 603.865 378.71 601.468 378.293 599.152 377.497 597.006 376.352 594.66 375.213 592.387 373.955 589.984 372.977 587.263 371.859 584.638 370.52 582.137 368.972 580.824 368.174 580.767 367.748 581.633 366.592 584.064 363.374 587.316 361.04 590.324 358.428 592.954 356.131 594.461 356.231 597.075 358.686 597.61 359.123 598.068 359.647 598.43 360.235 599.694 362.647 601.837 364.111 604.041 365.512 605.21 366.255 605.743 366.111 606.679 365.111 607.939 363.66 608.659 361.819 608.716 359.899 608.928 357.481 609.147 355.086 609.41 352.674 609.825 348.717 610.271 344.774 610.702 340.825 610.819 339.799 610.94 338.766 611.11 337.748 611.677 334.163 612.298 330.58 612.794 326.986 613.1 324.749 613.29 322.529 612.206 320.367 611.803 319.397 611.028 318.629 610.054 318.236 609.404 317.989 608.74 317.783 608.065 317.619 601.995 316.203 595.812 315.323 589.588 314.99 586.818 314.981 584.059 314.662 581.361 314.037 579.513 313.577 577.622 313.313 575.72 313.249 572.684 313.058 571.238 314.762 571.831 317.82 572.04 318.819 572.445 319.768 573.022 320.61 573.691 321.602 574.656 322.394 575.419 323.33 576.089 324.001 576.089 325.087 575.419 325.757 575.319 325.856 575.208 325.943 575.088 326.015 573.763 326.828 572.377 327.564 571.024 328.308 568.455 329.729 565.852 331.139 563.294 332.579 559.262 334.841 557.509 338.449 557.491 342.904 557.474 346.351 557.617 349.824 557.906 353.278 558.741 363.28 559.667 373.28 560.61 383.288 560.907 386.398 561.417 389.477 563.439 392.071 563.986 392.745 564.415 393.506 564.71 394.322 565.706 397.478 567.895 399.587 570.569 401.347 577.597 406.001 585.072 409.94 592.883 413.108 595.016 413.927 597.472 414.815 599.873 415.809 603.35 417.251 608.634 414.654 609.65 411.094 610.076 409.963 610.445 408.81 610.755 407.642 611.423 404.6 612.534 401.673 614.053 398.954 615.711 395.71 617.16 392.364 618.391 388.935ZM571.713 367.322C571.214 368.026 570.677 368.703 570.106 369.35 569.779 369.618 569.42 369.844 569.038 370.024 568.877 369.724 568.626 369.425 568.595 369.119 568.278 366.205 567.859 363.271 567.727 360.354 567.525 355.702 567.515 351.033 567.424 346.368 567.325 345.513 567.619 344.66 568.223 344.047 571.058 341.26 573.802 338.382 576.609 335.583 577.827 334.358 579.112 333.201 580.459 332.119 583.372 329.802 584.564 327.082 582.891 323.482 582.595 322.858 582.378 322.2 582.245 321.522 582.096 321.132 582.29 320.694 582.681 320.545 582.79 320.503 582.908 320.487 583.024 320.498 587.659 320.936 592.332 320.985 596.702 323.066 598.291 323.739 599.969 324.179 601.684 324.372 602.752 324.448 603.597 325.308 603.656 326.378 604.022 328.243 604.294 330.126 604.471 332.019 604.967 338.739 604.875 345.49 604.197 352.195 604.106 352.694 603.973 353.184 603.8 353.66 603.467 353.715 603.056 353.926 602.918 353.799 601.752 352.764 600.614 351.702 599.538 350.575 598.548 349.584 597.143 349.127 595.76 349.345 593.514 349.611 591.364 350.411 589.491 351.679 582.528 355.583 576.467 360.914 571.707 367.322ZM577.975 377.901C576.228 380.042 575.146 382.647 574.86 385.395 574.818 385.782 574.299 386.135 573.933 386.416 573.859 386.462 573.447 386.009 573.161 385.789 571.072 384.087 571.756 382.164 572.536 380.131 573.395 378.66 574.324 377.198 575.125 375.686 576.495 373.125 577.37 373.337 580.078 375.052 580.241 375.268 580.278 375.555 580.175 375.805 579.47 376.529 578.602 377.114 577.969 377.901ZM582.457 388.513C582.317 388.797 582.146 389.064 581.949 389.311 581.833 388.991 581.618 388.688 581.616 388.357 581.595 386.493 581.565 384.607 581.675 382.739 581.776 381.726 581.935 380.719 582.151 379.725 582.124 378.644 582.134 378.138 582.092 377.626 582.017 376.624 582.817 376.985 583.086 377.144 584.274 377.826 585.426 378.569 586.538 379.369 586.742 379.622 586.794 379.965 586.672 380.266 584.638 382.72 583.606 385.648 582.451 388.512ZM589.904 398.592C589.672 398.815 589.334 399.218 589.134 399.16 588.646 399.091 588.203 398.835 587.899 398.448 587.598 397.843 587.476 397.164 587.546 396.492 587.901 393.616 588.188 390.695 588.799 387.861 589.366 385.888 589.612 383.836 589.526 381.785 589.435 381.015 590.014 380.704 590.838 381.004 591.486 381.235 592.121 381.496 593.163 381.897 593.382 381.999 594.005 382.292 594.622 382.603 595.23 382.866 595.51 383.572 595.247 384.179 595.228 384.223 595.207 384.266 595.183 384.307 592.264 388.369 590.5 393.145 590.079 398.129 590.077 398.3 590.013 398.464 589.899 398.591ZM608.08 397.742C607.336 399.68 606.615 401.608 605.839 403.533 605.613 403.998 605.35 404.443 605.052 404.865 604.896 404.217 604.506 403.554 604.593 402.943 604.93 400.391 605.405 397.854 605.81 395.31 605.967 394.471 606.059 393.622 606.087 392.77 605.988 391.932 605.229 391.334 604.391 391.432 604.174 391.458 603.964 391.53 603.776 391.644 602.961 392.246 602.294 393.028 601.829 393.929 600.778 396.667 599.958 399.475 599.055 402.27 598.921 402.731 598.762 403.184 598.579 403.628 598.543 403.722 598.278 403.788 598.132 403.787 597.969 403.779 597.668 403.7 597.653 403.64 597.448 402.467 597.319 401.283 597.267 400.093 597.286 397.694 597.35 395.276 597.554 392.874 597.793 390.045 597.439 387.135 598.57 384.428L606.362 387.089C607.01 387.319 607.668 387.571 608.303 387.833 611.347 389.056 611.386 389.146 610.143 392.435 609.774 393.395 609.368 394.36 608.999 395.321L608.071 397.739Z" fill="#F2B33D"/></g></g></g><g clip-path="url(#clip8)"><g clip-path="url(#clip9)"><g clip-path="url(#clip10)"><path d="M638.754 271.278C632.664 273.806 626.977 277.211 621.871 281.384 618.168 284.502 614.606 287.81 611.227 291.272 608.908 293.651 609.012 296.127 610.996 298.764 611.425 299.307 611.886 299.822 612.378 300.307 617.913 306.044 623.447 311.775 628.979 317.5 629.218 317.753 629.5 317.962 629.752 318.196 631.043 319.428 632.92 319.821 634.596 319.209 635.915 318.81 637.164 318.211 638.3 317.432 642.296 314.397 646.25 311.317 650.481 308.606 651.162 308.073 651.815 307.505 652.436 306.904 656.481 303.651 660.521 300.381 664.611 297.188 666.258 295.891 667.107 296.051 667.815 297.82 669.082 301.024 670.676 304.1 671.442 307.521 672.007 310.052 672.795 312.524 673.499 315.029 673.822 315.928 673.356 316.918 672.457 317.242 672.333 317.287 672.203 317.317 672.071 317.332 670.716 317.651 669.343 317.867 668.003 318.164 665.978 318.637 663.929 319.069 661.947 319.681 660.681 320.01 659.922 321.304 660.251 322.57 660.378 323.057 660.657 323.491 661.047 323.809 661.72 324.353 662.424 324.859 663.153 325.324 664.741 326.376 666.37 327.352 667.946 328.441 675.356 333.555 682.754 338.706 690.18 343.816 691.518 344.981 693.546 344.842 694.711 343.505 694.751 343.46 694.789 343.413 694.825 343.366 696.566 341.443 698.281 339.488 699.902 337.464 701.826 335.007 704.045 332.795 706.51 330.88 708.671 329.421 710.437 327.449 711.651 325.141 712.025 324.361 712.583 323.683 713.278 323.168 716.075 321.102 717.501 318.227 718.538 315.034 718.802 314.253 718.992 313.325 719.99 313.058L719.616 311.016C719.285 310.947 718.971 310.815 718.69 310.627 716.715 308.722 714.435 308.546 711.921 309.182 710.073 309.66 708.208 310.055 706.34 310.431 705.535 310.648 704.707 310.171 704.491 309.366 704.474 309.302 704.461 309.238 704.452 309.173 703.81 305.766 703.013 302.371 702.595 298.945 701.627 290.891 696.727 285.401 690.643 280.864 687.506 278.705 684.154 276.876 680.641 275.406 674.457 272.66 667.824 271.065 661.068 270.699 658.825 270.616 656.599 270.281 654.431 269.699 648.905 267.935 643.666 269.139 638.754 271.278ZM648.656 300.006C648.509 300.347 648.461 300.753 648.234 300.938 644.254 303.97 640.294 307.016 636.245 309.957 635.641 310.242 634.935 310.208 634.362 309.866 629.698 306.046 625.066 302.168 620.505 298.223 618.937 296.872 619.151 295.118 620.862 293.885 621.281 293.576 621.719 293.293 622.171 293.035 623.801 292.127 624.546 292.286 625.465 293.967 627.445 297.433 630.271 300.341 633.679 302.421 635.562 303.66 637.77 304.316 640.025 304.306 641.802 304.294 642.626 303.078 641.734 301.637 641.201 300.752 640.587 299.919 639.9 299.147 637.663 296.748 635.355 294.433 633.074 292.076 632.124 291.082 631.126 290.113 630.252 289.052 630.029 288.64 630.03 288.142 630.254 287.731 631.16 286.946 632.145 286.258 633.192 285.675 633.665 285.564 634.163 285.679 634.539 285.986 635.006 286.496 635.408 287.06 635.737 287.668 638.737 292.421 642.428 296.454 647.477 299.088 647.895 299.36 648.289 299.667 648.656 300.006ZM651.766 294.516C651.77 294.529 651.778 294.54 651.789 294.547 651.897 294.58 652.03 294.625 652.14 294.657 652.209 294.786 652.285 294.912 652.367 295.034 652.417 295.112 652.51 295.147 652.573 295.206 652.393 295.082 652.214 294.957 652.017 294.837 651.931 294.751 651.858 294.64 651.772 294.551 651.762 294.542 651.749 294.539 651.736 294.54 651.757 294.538 651.774 294.535 651.771 294.518ZM665.487 278.73C671.45 279.853 677.405 281.099 682.913 283.768 684.466 284.528 685.938 285.445 687.305 286.504 689.219 287.749 690.508 289.755 690.844 292.013 691.063 293.683 692.078 295.224 692.54 296.885 693.002 298.546 693.198 300.289 693.51 301.992 693.56 301.982 693.611 301.99 693.666 301.98 693.913 304.569 694.228 307.146 694.352 309.722 694.442 311.642 695.726 313.221 695.552 315.225 695.473 316.128 696.82 316.998 697.812 316.991 699.536 316.972 701.274 316.846 703.004 316.86 704.123 316.864 705.344 316.012 706.327 317.193 705.847 318.29 705.269 319.342 704.601 320.335 703.406 321.81 701.965 323.086 700.73 324.534 698.007 327.667 695.351 330.875 692.63 334.025 690.706 336.279 690.661 336.322 688.099 334.524 684.555 332.034 681.052 329.484 677.533 326.936 676.408 326.126 675.295 325.288 674.211 324.422 673.417 323.8 673.556 322.85 674.692 322.572 676.909 322.008 677.593 320.505 678.06 318.483 679.21 313.527 678.087 308.832 676.561 304.209 675.423 300.771 674.101 297.438 673.221 293.884 671.96 288.99 669.438 284.514 665.904 280.902 665.428 280.397 664.924 279.93 664.461 279.405 664.418 279.36 664.513 279.133 664.602 279.031 664.712 278.906 664.849 278.809 665.004 278.748 665.162 278.709 665.326 278.703 665.487 278.73ZM661.161 285.874C662.387 287.324 662.305 288.403 661.04 290.062 660.211 291.156 659.277 291.293 658.538 290.312 656.377 287.393 654.274 284.464 652.178 281.499 652.036 281.28 652.118 280.882 652.146 280.563 652.153 280.509 652.392 280.482 652.643 280.419 655.921 281.435 658.864 283.32 661.159 285.872ZM643.916 280.87C644.039 280.987 644.205 281.114 644.212 281.252 644.444 284.611 646.893 287.005 647.944 290.004 648.002 290.029 648.076 290.05 648.131 290.072L648.169 290.274C648.824 290.569 649.272 291.192 649.34 291.908 649.394 291.915 649.445 291.924 649.502 291.93 649.57 292.069 649.652 292.2 649.748 292.321 649.828 292.376 649.924 292.428 650.004 292.483 649.924 292.428 649.815 292.396 649.748 292.321L649.748 292.321C649.634 292.254 649.511 292.172 649.395 292.106 649.382 292.038 649.353 291.975 649.341 291.907 648.407 291.764 648.289 291.018 648.169 290.273 648.121 290.244 648.07 290.219 648.017 290.199 647.985 290.137 647.961 290.071 647.945 290.003 647.387 289.898 646.858 289.673 646.395 289.345 644.289 287.298 642.495 284.953 641.071 282.384 640.603 281.545 640.706 281.056 641.531 280.799 642.306 280.57 643.131 280.123 643.913 280.868ZM613.828 350.579C613.219 347.876 612.77 345.139 612.484 342.382 612.213 337.024 612.02 331.669 611.72 326.316 611.559 323.344 610.935 320.511 610.508 317.607 610.328 316.55 609.577 315.68 608.558 315.348 607.577 315.022 606.57 314.781 605.548 314.626 601.639 313.86 597.737 313.04 593.828 312.361 584.461 310.745 575.08 309.15 565.68 307.646 563.502 307.284 561.442 308.755 561.08 310.934 560.938 311.784 561.076 312.658 561.471 313.424 562.602 315.757 563.879 318.016 565.293 320.189 566.343 321.826 566.6 323.229 565.412 324.93 562.925 328.696 561.121 332.871 560.084 337.263 559.411 340.306 558.531 343.299 557.452 346.223 555.81 350.24 555.09 354.574 555.346 358.905 555.486 361.656 555.917 364.403 556.229 367.154 557.642 377.24 562.458 385.917 568.08 394.028 574.635 403.52 583.86 409.977 594.595 414.202 597.171 415.213 599.773 416.184 602.313 417.288 604.378 418.179 606.354 419.251 608.409 420.184 609.955 421.093 611.946 420.577 612.856 419.03 612.961 418.851 613.049 418.662 613.118 418.466 613.665 417.194 614.047 415.858 614.254 414.489 615.084 409.388 616.63 404.43 618.846 399.761 620.311 396.058 621.454 392.236 622.265 388.336 622.716 386.751 621.889 385.083 620.354 384.482 618.637 383.679 616.854 382.996 615.082 382.361 611.986 381.271 608.771 380.483 605.757 379.168 600.994 377.076 596.203 375.11 591.263 373.469 588.431 372.635 585.771 371.303 583.407 369.536 582.426 368.757 582.111 367.89 582.74 366.85 583.386 365.637 584.197 364.52 585.149 363.529 588.188 360.705 591.38 358.026 594.51 355.31 595.055 354.823 595.874 354.806 596.439 355.27 599.08 357.211 601.669 359.248 604.295 361.209 605.043 361.906 605.919 362.45 606.875 362.812 609.655 363.547 612.572 362.252 613.892 359.697 614.63 358.51 614.91 357.094 614.679 355.714 614.42 353.995 614.124 352.287 613.828 350.579ZM604.115 388.382C604.473 388.71 604.658 389.186 604.613 389.669 604.264 390.45 603.789 391.168 603.206 391.794 601.602 393.605 599.932 395.341 598.324 397.137 597.741 397.765 597.236 398.461 596.82 399.21 596.692 399.656 596.736 400.133 596.943 400.548 597.204 400.752 597.547 400.819 597.865 400.728 599.896 399.815 601.92 398.867 603.922 397.89 604.529 397.587 605.046 397.074 605.677 396.801 606.116 396.649 606.588 396.623 607.041 396.726 607.145 396.741 607.163 397.297 607.231 397.668 606.703 399.736 606.743 402.049 605.216 403.899 604.059 405.297 602.767 405.865 601.159 404.991 598.69 403.757 596.083 402.823 593.392 402.21 592.396 401.946 591.427 401.592 590.494 401.154 589.912 400.808 589.365 400.406 588.862 399.953 589.24 399.406 589.658 398.888 590.113 398.403 590.522 398.088 590.964 397.82 591.432 397.603 595.05 395.581 598.228 392.856 600.779 389.589 601.303 388.91 601.969 388.354 602.73 387.959 603.06 387.791 603.78 388.078 604.115 388.382ZM595.297 384.626C594.505 385.742 593.639 386.804 592.705 387.805 589.827 390.757 586.866 393.652 583.948 396.58 583.502 397.136 582.712 397.274 582.105 396.9 581.068 396.287 580.073 395.615 579.063 394.963 578.731 394.729 578.652 394.27 578.886 393.938 578.943 393.857 579.016 393.789 579.1 393.737 579.691 393.388 580.304 393.078 580.935 392.807 585.766 390.937 590.124 388.023 593.698 384.274 594.067 384.009 594.475 383.804 594.908 383.668 595.098 384.109 595.38 384.506 595.297 384.626ZM583.978 383.212C583.962 383.215 583.948 383.235 583.931 383.238 583.865 383.35 583.805 383.466 583.751 383.585 583.636 383.623 583.518 383.645 583.402 383.683 581.699 386.001 579.21 387.365 576.819 388.797 575.025 389.859 573.746 389.259 572.703 387.179 572.37 386.507 572.734 385.637 573.334 385.772 575.638 386.258 577.723 385.544 579.827 384.74 580.985 384.301 582.204 384.007 583.398 383.667 583.45 383.594 583.507 383.525 583.57 383.46 583.698 383.386 583.823 383.305 583.944 383.217L584.1 382.926C584.075 383.027 584.034 383.124 583.978 383.212ZM579.32 376.738C579.857 377.094 579.799 377.54 579.322 377.889 578.232 378.699 577.105 379.499 575.992 380.279 575.883 380.351 575.536 380.363 575.526 380.313 575.447 380.066 575.317 379.723 575.421 379.547 576.049 378.541 576.733 377.571 577.47 376.642 577.639 376.419 578.073 376.409 578.387 376.317 578.707 376.437 579.018 376.577 579.32 376.736ZM572.26 362.96C571.058 365.064 569.997 367.247 568.748 369.308 568.185 370.232 568.383 371.695 566.944 372.028 566.505 370.921 566.124 369.792 565.8 368.646 565.406 366.973 565.161 365.256 564.849 363.551L565.102 363.504C564.883 362.306 564.7 361.119 564.447 359.926 563.636 356.725 563.579 353.379 564.281 350.152 564.421 349.306 564.479 348.448 564.457 347.591 564.517 345.504 565.257 343.493 566.565 341.866 568.49 339.42 570.274 336.877 572.18 334.434 573.735 332.366 575.075 330.146 576.182 327.807 577.363 325.685 577.826 323.238 577.503 320.831 577.264 319.236 577.993 318.648 579.668 318.935 582.565 319.42 585.475 319.876 588.322 320.559 593.19 321.707 598.02 323.124 603.045 323.511 603.951 323.504 604.699 324.216 604.736 325.121 605.148 328.377 605.387 331.652 605.453 334.933 605.437 338.908 605.842 342.875 606.662 346.765 606.787 347.438 606.819 348.125 606.757 348.807 606.751 348.965 606.248 349.267 606.081 349.21 604.147 348.439 602.445 347.183 601.138 345.562 599.274 343.501 596.899 341.969 594.253 341.12 591.61 340.313 589.51 340.751 587.753 342.87 587.628 342.993 587.512 343.125 587.406 343.264 582.504 349.934 576.428 355.722 572.26 362.96ZM682.22 357.948C679.375 358.505 678.86 359.505 679.208 362.355 679.522 364.932 679.959 367.502 680.033 370.089 679.998 371.995 680.345 373.889 681.054 375.659 681.946 377.92 682.472 380.308 682.612 382.735 682.859 385.324 682.969 387.92 683.385 390.478 683.848 393.38 684.071 396.315 684.052 399.253 684.054 400.788 683.719 401.059 682.281 400.921 678.266 400.523 674.58 398.966 670.782 397.761 667.45 396.714 666.751 395.376 667.487 391.875 667.581 391.19 667.79 390.527 668.104 389.912 669.506 387.579 669.641 384.99 669.69 382.382 669.716 380.999 669.315 380.621 667.973 380.342 666.078 380.023 664.131 380.368 662.461 381.318 660.286 382.396 658.125 383.456 655.928 384.486 652.333 386.192 648.732 387.864 645.134 389.552 644.197 389.986 643.252 390.42 642.293 390.806 638.936 392.188 635.552 393.524 632.224 394.971 630.153 395.874 628.158 396.868 626.876 398.917 626.258 399.762 626.006 400.821 626.175 401.854 626.303 402.536 626.473 403.21 626.684 403.871 628.636 409.784 631.105 415.514 634.061 420.993 635.496 423.359 636.66 425.879 637.531 428.504 638.101 430.319 638.86 432.069 639.796 433.724 641.213 436.412 643.422 436.758 645.725 434.661 646.469 433.963 647.068 433.124 647.488 432.193 647.987 431.107 648.161 429.871 648.563 428.734 648.788 427.812 649.717 427.247 650.638 427.472 650.774 427.505 650.905 427.554 651.028 427.619 652.414 428.324 653.764 429.124 655.103 429.89 657.655 431.341 660.214 432.827 662.777 434.258 666.803 436.521 670.798 436.142 674.614 433.834 677.567 432.053 680.459 430.128 683.259 428.083 691.367 422.166 699.426 416.17 707.484 410.158 709.986 408.287 712.349 406.248 713.513 403.174 713.804 402.357 714.23 401.595 714.774 400.92 716.951 398.427 717.612 395.463 717.724 392.267 718.039 383.854 717.512 375.43 716.15 367.122 715.739 364.877 715.219 362.321 714.818 359.76 714.239 356.045 709.268 352.893 705.699 353.878 704.512 354.101 703.338 354.385 702.18 354.726 699.234 355.74 696.155 356.316 693.042 356.436 689.406 356.71 685.791 357.216 682.219 357.949ZM688.071 409C688.932 409.059 689.79 409.163 690.64 409.313 691.039 409.453 691.419 409.641 691.772 409.873 691.6 410.167 691.476 410.537 691.23 410.723 688.906 412.509 686.619 414.394 684.195 416.024 680.326 418.617 676.343 421.057 672.405 423.558 671.726 424.086 670.845 424.28 670.007 424.085 666.149 423.117 662.257 422.278 658.41 421.343 656.731 420.943 655.074 420.449 653.449 419.865 649.953 418.587 647.008 418.986 644.804 422.286 644.425 422.862 643.975 423.388 643.465 423.853 643.21 424.184 642.735 424.246 642.404 423.991 642.311 423.919 642.236 423.827 642.185 423.722 640.146 419.543 637.753 415.532 637.255 410.722 637.002 409.017 636.504 407.357 635.776 405.794 635.284 404.843 635.579 403.674 636.462 403.069 637.865 401.785 639.331 400.573 640.856 399.438 646.339 395.517 652.153 392.082 658.233 389.171 658.706 388.988 659.194 388.846 659.691 388.746 659.912 389.002 660.305 389.243 660.269 389.425 659.993 390.959 659.678 392.481 659.276 393.986 658.946 395.346 659.287 396.782 660.193 397.848 661.59 399.625 663.394 401.042 665.451 401.978 672.413 405.884 680.12 408.277 688.07 409.001ZM693.845 398.155C696.584 398.53 699.372 398.098 701.869 396.911 702.222 396.745 702.793 397.004 703.224 397.171 703.302 397.209 703.13 397.798 703.091 398.155 702.725 400.821 700.725 401.24 698.581 401.633 696.878 401.665 695.145 401.634 693.437 401.738 690.536 401.903 690.261 401.047 690.316 397.845 690.415 397.593 690.641 397.412 690.909 397.369 691.893 397.589 692.84 398.026 693.845 398.156ZM700.575 388.81C700.89 388.783 701.207 388.789 701.521 388.829 701.307 389.095 701.16 389.436 700.878 389.609 699.297 390.597 697.702 391.604 696.049 392.483 695.132 392.924 694.189 393.312 693.227 393.646 692.318 394.231 691.881 394.486 691.465 394.789 690.649 395.374 690.541 394.505 690.536 394.192 690.499 392.824 690.534 391.455 690.638 390.091 690.747 389.785 691.014 389.563 691.334 389.51 694.489 389.961 697.529 389.318 700.575 388.811ZM705.306 377.215C705.617 377.297 706.138 377.376 706.193 377.576 706.387 378.028 706.4 378.539 706.227 379 705.867 379.572 705.352 380.029 704.741 380.319 702.1 381.515 699.454 382.788 696.717 383.744 694.736 384.285 692.855 385.142 691.147 386.282 690.536 386.761 689.969 386.428 689.797 385.57 689.656 384.898 689.549 384.22 689.348 383.123 689.322 382.884 689.249 382.199 689.192 381.512 689.101 380.855 689.559 380.249 690.215 380.158 690.261 380.152 690.308 380.148 690.356 380.147 695.345 380.522 700.343 379.539 704.82 377.304 704.966 377.217 705.139 377.186 705.307 377.216ZM695.116 362.161C697.158 361.787 699.18 361.399 701.229 361.058 701.744 361.008 702.261 361.001 702.777 361.035 702.305 361.506 701.941 362.183 701.375 362.427 699.019 363.468 696.604 364.382 694.22 365.364 693.423 365.667 692.649 366.03 691.907 366.45 691.244 366.968 691.127 367.926 691.645 368.589 691.781 368.762 691.953 368.905 692.149 369.006 693.088 369.389 694.103 369.55 695.114 369.478 698 368.949 700.826 368.188 703.684 367.506 704.147 367.378 704.617 367.274 705.092 367.196 705.19 367.178 705.386 367.369 705.461 367.495 705.539 367.638 705.629 367.935 705.584 367.98 704.69 368.765 703.745 369.492 702.757 370.156 700.697 371.388 698.598 372.593 696.44 373.668 693.898 374.937 691.597 376.754 688.696 377.198L686.911 369.169C686.77 368.497 686.643 367.805 686.536 367.127 685.997 363.893 686.052 363.814 689.508 363.163 690.52 362.977 691.556 362.823 692.569 362.637L695.117 362.17Z" fill="#D94854"/></g></g></g></g></g></svg>