<svg width="448" height="512" xmlns="http://www.w3.org/2000/svg" xmlns:xlink="http://www.w3.org/1999/xlink" xml:space="preserve" overflow="hidden"><defs><clipPath id="clip0"><rect x="416" y="104" width="448" height="512"/></clipPath></defs><g clip-path="url(#clip0)" transform="translate(-416 -104)"><path d="M700.2 104C712.3 104 723.4 110.848 728.8 121.69L736 136 832 136C849.7 136 864 150.33 864 168 864 185.67 849.7 200 832 200L448 200C430.33 200 416 185.67 416 168 416 150.33 430.33 136 448 136L544 136 551.2 121.69C556.6 110.848 567.7 104 579.8 104L700.2 104ZM447.1 232 832 232 810.8 570.1C809.2 596.3 788.3 616 762.9 616L517.1 616C491.75 616 470.77 596.3 469.19 570.1L447.1 232ZM623 303 543 383C533.7 392.4 533.7 407.6 543 416.1 552.4 426.3 567.6 426.3 576.1 416.1L615.1 377.9 615.1 512C615.1 525.3 626.7 536 639.1 536 653.3 536 664 525.3 664 512L664 377.9 703 416.1C712.4 426.3 727.6 426.3 736.1 416.1 746.3 407.6 746.3 392.4 736.1 383L656.1 303C652.5 298.5 646.4 295.1 639.1 295.1 633.6 295.1 627.5 298.5 623 303L623 303Z" fill="#1B70A6"/></g></svg>