<svg width="448" height="512" xmlns="http://www.w3.org/2000/svg" xmlns:xlink="http://www.w3.org/1999/xlink" xml:space="preserve" overflow="hidden"><defs><clipPath id="clip0"><rect x="416" y="104" width="448" height="512"/></clipPath></defs><g clip-path="url(#clip0)" transform="translate(-416 -104)"><path d="M816 136 464 136C437.5 136 416 157.5 416 184L416 536C416 562.5 437.5 584 464 584L816 584C842.5 584 864 562.5 864 536L864 184C864 157.5 842.5 136 816 136ZM767.1 294.8C767.3 297.6 767.3 300.5 767.3 303.3 767.3 390 701.3 489.9 580.7 489.9 543.5 489.9 509 479.1 480 460.5 485.3 461.1 490.4 461.3 495.8 461.3 526.5 461.3 554.7 450.9 577.2 433.3 548.4 432.7 524.2 413.8 515.9 387.8 526 389.3 535.1 389.3 545.5 386.6 515.5 380.5 493 354.1 493 322.2L493 321.4C501.7 326.3 511.9 329.3 522.6 329.7 504.328 317.546 493.364 297.044 493.4 275.1 493.4 262.9 496.6 251.7 502.3 242 534.6 281.8 583.1 307.8 637.5 310.6 628.2 266.1 661.5 230 701.5 230 720.4 230 737.4 237.9 749.4 250.7 764.2 247.9 778.4 242.4 791 234.9 786.1 250.1 775.8 262.9 762.2 271 775.4 269.6 788.2 265.9 800 260.8 791.1 273.9 779.9 285.5 767.1 294.8Z" fill="#FFFFFF"/></g></svg>