<svg width="448" height="512" xmlns="http://www.w3.org/2000/svg" xmlns:xlink="http://www.w3.org/1999/xlink" xml:space="preserve" overflow="hidden"><defs><clipPath id="clip0"><rect x="416" y="104" width="448" height="512"/></clipPath></defs><g clip-path="url(#clip0)" transform="translate(-416 -104)"><path d="M640 226.8C567.3 226.8 508.2 285.9 508.1 358.6 508.1 383.5 515.1 407.8 528.3 428.7L531.4 433.7 518.1 482.3 568 469.2 572.8 472.1C593 484.1 616.2 490.5 639.9 490.5L640 490.5C712.6 490.5 773.3 431.4 773.3 358.7 773.3 323.5 758.1 290.4 733.2 265.5 708.2 240.5 675.2 226.8 640 226.8ZM717.5 415.2C714.2 424.5 698.4 432.9 690.8 434 678.2 435.9 668.4 434.9 643.3 424.1 603.6 406.9 577.6 366.9 575.6 364.3 573.6 361.7 559.4 342.8 559.4 323.3 559.4 303.8 569.6 294.2 573.3 290.2 576.9 286.2 581.2 285.2 583.9 285.2 586.5 285.2 589.2 285.2 591.5 285.3 593.9 285.4 597.2 284.4 600.4 292.1 603.7 300 611.6 319.5 612.6 321.5 613.6 323.5 614.3 325.8 612.9 328.4 605.3 343.6 597.2 343 601.3 350 616.6 376.3 631.9 385.4 655.2 397.1 659.2 399.1 661.5 398.8 663.8 396.1 666.1 393.5 673.7 384.5 676.3 380.6 678.9 376.6 681.6 377.3 685.2 378.6 688.8 379.9 708.3 389.5 712.3 391.5 716.3 393.5 718.9 394.5 719.9 396.1 720.8 398 720.8 406 717.5 415.2ZM816 136 464 136C437.5 136 416 157.5 416 184L416 536C416 562.5 437.5 584 464 584L816 584C842.5 584 864 562.5 864 536L864 184C864 157.5 842.5 136 816 136ZM639.9 517.2C613.3 517.2 587.2 510.5 564.1 497.9L480 520 502.5 437.8C488.6 413.8 481.3 386.5 481.3 358.5 481.4 271.1 552.5 200 639.9 200 682.3 200 722.1 216.5 752.1 246.5 782 276.5 800 316.3 800 358.7 800 446.1 727.3 517.2 639.9 517.2Z" fill="#FFFFFF"/></g></svg>