<svg width="448" height="512" xmlns="http://www.w3.org/2000/svg" xmlns:xlink="http://www.w3.org/1999/xlink" xml:space="preserve" overflow="hidden"><defs><clipPath id="clip0"><rect x="416" y="104" width="448" height="512"/></clipPath></defs><g clip-path="url(#clip0)" transform="translate(-416 -104)"><path d="M602.8 306.1 698 360.2 602.8 414.3 602.8 306.1ZM864 184 864 536C864 562.5 842.5 584 816 584L464 584C437.5 584 416 562.5 416 536L416 184C416 157.5 437.5 136 464 136L816 136C842.5 136 864 157.5 864 184ZM822 360.3C822 360.3 822 300.7 814.4 272.1 810.2 256.3 797.9 243.9 782.2 239.7 753.9 232 640 232 640 232 640 232 526.1 232 497.8 239.7 482.1 243.9 469.8 256.3 465.6 272.1 458 300.6 458 360.3 458 360.3 458 360.3 458 419.9 465.6 448.5 469.8 464.3 482.1 476.2 497.8 480.4 526.1 488 640 488 640 488 640 488 753.9 488 782.2 480.3 797.9 476.1 810.2 464.2 814.4 448.4 822 419.9 822 360.3 822 360.3Z" fill="#FFFFFF"/></g></svg>